<svg width="48" height="48" viewBox="0 0 48 48" fill="none" xmlns="http://www.w3.org/2000/svg">
  <circle cx="24" cy="24" r="22" fill="#667eea"/>
  <path d="M24 12C21.6131 12 19.3239 12.9482 17.636 14.636C15.9482 16.3239 15 18.6131 15 21V24C15 26.3869 15.9482 28.6761 17.636 30.364C19.3239 32.0518 21.6131 33 24 33C26.3869 33 28.6761 32.0518 30.364 30.364C32.0518 28.6761 33 26.3869 33 24V21C33 18.6131 32.0518 16.3239 30.364 14.636C28.6761 12.9482 26.3869 12 24 12Z" fill="white"/>
  <path d="M24 36V40.5" stroke="white" stroke-width="3" stroke-linecap="round"/>
  <path d="M18 40.5H30" stroke="white" stroke-width="3" stroke-linecap="round"/>
  <path d="M10.5 24C10.5 27.5804 11.9223 31.0142 14.4541 33.5459C16.9858 36.0777 20.4196 37.5 24 37.5C27.5804 37.5 31.0142 36.0777 33.5459 33.5459C36.0777 31.0142 37.5 27.5804 37.5 24" stroke="white" stroke-width="3" stroke-linecap="round"/>
</svg>
