<svg width="16" height="16" viewBox="0 0 16 16" fill="none" xmlns="http://www.w3.org/2000/svg">
  <circle cx="8" cy="8" r="7" fill="#667eea"/>
  <path d="M8 4C7.20435 4 6.44129 4.31607 5.87868 4.87868C5.31607 5.44129 5 6.20435 5 7V8C5 8.79565 5.31607 9.55871 5.87868 10.1213C6.44129 10.6839 7.20435 11 8 11C8.79565 11 9.55871 10.6839 10.1213 10.1213C10.6839 9.55871 11 8.79565 11 8V7C11 6.20435 10.6839 5.44129 10.1213 4.87868C9.55871 4.31607 8.79565 4 8 4Z" fill="white"/>
  <path d="M8 12V13.5" stroke="white" stroke-width="1" stroke-linecap="round"/>
  <path d="M6 13.5H10" stroke="white" stroke-width="1" stroke-linecap="round"/>
  <path d="M3.5 8C3.5 9.19347 3.97411 10.3381 4.81802 11.182C5.66193 12.0259 6.80653 12.5 8 12.5C9.19347 12.5 10.3381 12.0259 11.182 11.182C12.0259 10.3381 12.5 9.19347 12.5 8" stroke="white" stroke-width="1" stroke-linecap="round"/>
</svg>
